<?xml version="1.0" encoding="utf-8" standalone="no"?>
<!DOCTYPE svg PUBLIC "-//W3C//DTD SVG 1.1//EN"
  "http://www.w3.org/Graphics/SVG/1.1/DTD/svg11.dtd">
<svg xmlns:xlink="http://www.w3.org/1999/xlink" width="38.916081pt" height="21.450625pt" viewBox="0 0 38.916081 21.450625" xmlns="http://www.w3.org/2000/svg" version="1.1">
 <metadata>
  <rdf:RDF xmlns:dc="http://purl.org/dc/elements/1.1/" xmlns:cc="http://creativecommons.org/ns#" xmlns:rdf="http://www.w3.org/1999/02/22-rdf-syntax-ns#">
   <cc:Work>
    <dc:type rdf:resource="http://purl.org/dc/dcmitype/StillImage"/>
    <dc:format>image/svg+xml</dc:format>
    <dc:creator>
     <cc:Agent>
      <dc:title>Matplotlib v3.10.8, https://matplotlib.org/</dc:title>
     </cc:Agent>
    </dc:creator>
   </cc:Work>
  </rdf:RDF>
 </metadata>
 <defs>
  <style type="text/css">*{stroke-linejoin: round; stroke-linecap: butt}</style>
 </defs>
 <g id="figure_1">
  <g id="patch_1">
   <path d="M 0 21.450625 
L 38.916081 21.450625 
L 38.916081 0 
L 0 0 
L 0 21.450625 
z
" style="fill: none; opacity: 0"/>
  </g>
  <g id="axes_1">
   <g id="patch_2">
    <path d="M 1.18625 15.730625 
Q 1.4375 16.16375 2.06375 16.16375 
Q 2.631875 16.16375 3.048125 15.764375 
Q 3.464375 15.366875 3.719375 14.800625 
Q 3.974375 14.23625 4.115 13.64375 
Q 3.5825 14.148125 2.96 14.148125 
Q 2.485625 14.148125 2.151875 13.985 
Q 1.818125 13.82 1.6325 13.495625 
Q 1.44875 13.169375 1.44875 12.70625 
Q 1.44875 12.314375 1.55375 11.901875 
Q 1.660625 11.4875 1.85 10.98125 
Q 2.04125 10.473125 2.181875 10.098125 
Q 2.339375 9.659375 2.339375 9.378125 
Q 2.339375 9.02 2.076875 9.02 
Q 1.600625 9.02 1.293125 9.509375 
Q 0.985625 9.99875 0.839375 10.6025 
Q 0.816875 10.679375 0.74 10.679375 
L 0.599375 10.679375 
Q 0.5 10.679375 0.5 10.566875 
L 0.5 10.533125 
Q 0.693125 9.816875 1.090625 9.26375 
Q 1.49 8.710625 2.099375 8.710625 
Q 2.526875 8.710625 2.823125 8.991875 
Q 3.119375 9.273125 3.119375 9.70625 
Q 3.119375 9.929375 3.02 10.175 
Q 2.9675 10.32125 2.78 10.814375 
Q 2.5925 11.305625 2.49125 11.628125 
Q 2.391875 11.950625 2.328125 12.261875 
Q 2.264375 12.57125 2.264375 12.8825 
Q 2.264375 13.28 2.433125 13.555625 
Q 2.60375 13.83125 2.973125 13.83125 
Q 3.7175 13.83125 4.308125 12.92375 
L 5.2175 9.22625 
Q 5.256875 9.066875 5.403125 8.954375 
Q 5.55125 8.84 5.72 8.84 
Q 5.86625 8.84 5.975 8.93375 
Q 6.08375 9.0275 6.08375 9.179375 
Q 6.08375 9.24875 6.0725 9.273125 
L 4.881875 14.04875 
Q 4.724375 14.66375 4.3025 15.22625 
Q 3.880625 15.78875 3.28625 16.131875 
Q 2.691875 16.475 2.046875 16.475 
Q 1.735625 16.475 1.43 16.353125 
Q 1.12625 16.233125 0.93875 15.993125 
Q 0.75125 15.753125 0.75125 15.430625 
Q 0.75125 15.1025 0.944375 14.8625 
Q 1.139375 14.6225 1.46 14.6225 
Q 1.655 14.6225 1.78625 14.7425 
Q 1.9175 14.8625 1.9175 15.055625 
Q 1.9175 15.33125 1.71125 15.535625 
Q 1.506875 15.741875 1.233125 15.741875 
Q 1.22 15.73625 1.20875 15.7325 
Q 1.1975 15.730625 1.18625 15.730625 
z
M 9.069219 12.419375 
Q 8.969844 12.419375 8.904219 12.344375 
Q 8.840469 12.2675 8.840469 12.179375 
Q 8.840469 12.08 8.904219 12.010625 
Q 8.969844 11.939375 9.069219 11.939375 
L 16.604844 11.939375 
Q 16.692969 11.939375 16.756719 12.010625 
Q 16.822344 12.08 16.822344 12.179375 
Q 16.822344 12.2675 16.756719 12.344375 
Q 16.692969 12.419375 16.604844 12.419375 
L 9.069219 12.419375 
z
M 9.069219 10.086875 
Q 8.969844 10.086875 8.904219 10.0175 
Q 8.840469 9.94625 8.840469 9.846875 
Q 8.840469 9.75875 8.904219 9.68375 
Q 8.969844 9.606875 9.069219 9.606875 
L 16.604844 9.606875 
Q 16.692969 9.606875 16.756719 9.68375 
Q 16.822344 9.75875 16.822344 9.846875 
Q 16.822344 9.94625 16.756719 10.0175 
Q 16.692969 10.086875 16.604844 10.086875 
L 9.069219 10.086875 
z
M 20.710391 8.493125 
L 20.710391 8.07125 
Q 22.210391 8.07125 22.210391 7.690625 
L 22.210391 1.390625 
Q 21.589766 1.690625 20.639141 1.690625 
L 20.639141 1.26875 
Q 22.111016 1.26875 22.861016 0.5 
L 23.029766 0.5 
Q 23.071016 0.5 23.108516 0.53375 
Q 23.147891 0.565625 23.147891 0.606875 
L 23.147891 7.690625 
Q 23.147891 8.07125 24.647891 8.07125 
L 24.647891 8.493125 
L 20.710391 8.493125 
z
M 20.738516 19.76 
Q 21.019766 20.170625 21.494141 20.369375 
Q 21.970391 20.568125 22.514141 20.568125 
Q 23.211641 20.568125 23.504141 19.97375 
Q 23.798516 19.379375 23.798516 18.62375 
Q 23.798516 18.284375 23.736641 17.945 
Q 23.674766 17.60375 23.528516 17.31125 
Q 23.382266 17.01875 23.127266 16.8425 
Q 22.872266 16.66625 22.502891 16.66625 
L 21.706016 16.66625 
Q 21.601016 16.66625 21.601016 16.555625 
L 21.601016 16.450625 
Q 21.601016 16.356875 21.706016 16.356875 
L 22.367891 16.3025 
Q 22.789766 16.3025 23.067266 15.9875 
Q 23.346641 15.670625 23.476016 15.216875 
Q 23.605391 14.763125 23.605391 14.3525 
Q 23.605391 13.77875 23.335391 13.409375 
Q 23.065391 13.04 22.514141 13.04 
Q 22.058516 13.04 21.642266 13.2125 
Q 21.226016 13.385 20.980391 13.7375 
Q 21.002891 13.731875 21.019766 13.728125 
Q 21.038516 13.724375 21.061016 13.724375 
Q 21.331016 13.724375 21.512891 13.911875 
Q 21.694766 14.099375 21.694766 14.36375 
Q 21.694766 14.6225 21.512891 14.81 
Q 21.331016 14.9975 21.061016 14.9975 
Q 20.798516 14.9975 20.611016 14.81 
Q 20.423516 14.6225 20.423516 14.36375 
Q 20.423516 13.848125 20.732891 13.4675 
Q 21.044141 13.086875 21.533516 12.89 
Q 22.022891 12.693125 22.514141 12.693125 
Q 22.877891 12.693125 23.281016 12.801875 
Q 23.686016 12.910625 24.014141 13.113125 
Q 24.342266 13.315625 24.550391 13.6325 
Q 24.758516 13.9475 24.758516 14.3525 
Q 24.758516 14.856875 24.533516 15.284375 
Q 24.308516 15.711875 23.914766 16.023125 
Q 23.522891 16.3325 23.054141 16.484375 
Q 23.575391 16.58375 24.044141 16.878125 
Q 24.512891 17.170625 24.796016 17.628125 
Q 25.081016 18.08375 25.081016 18.6125 
Q 25.081016 19.274375 24.717266 19.810625 
Q 24.355391 20.346875 23.762891 20.64875 
Q 23.170391 20.950625 22.514141 20.950625 
Q 21.951641 20.950625 21.385391 20.735 
Q 20.821016 20.52125 20.461016 20.09375 
Q 20.101016 19.66625 20.101016 19.068125 
Q 20.101016 18.77 20.299766 18.57125 
Q 20.498516 18.3725 20.798516 18.3725 
Q 20.991641 18.3725 21.152891 18.4625 
Q 21.314141 18.5525 21.404141 18.7175 
Q 21.496016 18.880625 21.496016 19.068125 
Q 21.496016 19.3625 21.289766 19.56125 
Q 21.085391 19.76 20.798516 19.76 
L 20.738516 19.76 
z
M 27.974141 13.668125 
Q 28.186016 13.83125 28.572266 13.83125 
Q 28.947266 13.83125 29.234141 13.47125 
Q 29.521016 13.11125 29.626016 12.68375 
L 30.171641 10.555625 
Q 30.301016 9.97625 30.301016 9.764375 
Q 30.301016 9.46625 30.134141 9.243125 
Q 29.967266 9.02 29.667266 9.02 
Q 29.286641 9.02 28.952891 9.258125 
Q 28.619141 9.49625 28.390391 9.861875 
Q 28.161641 10.2275 28.067891 10.6025 
Q 28.045391 10.679375 27.974141 10.679375 
L 27.827891 10.679375 
Q 27.734141 10.679375 27.734141 10.566875 
L 27.734141 10.533125 
Q 27.850391 10.086875 28.131641 9.663125 
Q 28.412891 9.2375 28.819766 8.975 
Q 29.228516 8.710625 29.691641 8.710625 
Q 30.130391 8.710625 30.484766 8.945 
Q 30.839141 9.179375 30.985391 9.5825 
Q 31.191641 9.215 31.510391 8.96375 
Q 31.829141 8.710625 32.209766 8.710625 
Q 32.468516 8.710625 32.736641 8.8025 
Q 33.006641 8.8925 33.177266 9.08 
Q 33.347891 9.2675 33.347891 9.54875 
Q 33.347891 9.8525 33.151016 10.07375 
Q 32.954141 10.293125 32.650391 10.293125 
Q 32.457266 10.293125 32.327891 10.169375 
Q 32.198516 10.045625 32.198516 9.858125 
Q 32.198516 9.606875 32.371016 9.4175 
Q 32.545391 9.22625 32.785391 9.190625 
Q 32.567891 9.02 32.187266 9.02 
Q 31.801016 9.02 31.516016 9.378125 
Q 31.232891 9.73625 31.114766 10.175 
L 30.587891 12.295625 
Q 30.458516 12.7775 30.458516 13.086875 
Q 30.458516 13.3925 30.631016 13.611875 
Q 30.803516 13.83125 31.092266 13.83125 
Q 31.654766 13.83125 32.095391 13.33625 
Q 32.537891 12.84125 32.678516 12.24875 
Q 32.702891 12.179375 32.772266 12.179375 
L 32.920391 12.179375 
Q 32.967266 12.179375 32.995391 12.21125 
Q 33.025391 12.243125 33.025391 12.284375 
Q 33.025391 12.295625 33.014141 12.32 
Q 32.843516 13.034375 32.297891 13.59125 
Q 31.754141 14.148125 31.067891 14.148125 
Q 30.629141 14.148125 30.274766 13.911875 
Q 29.920391 13.67375 29.772266 13.26875 
Q 29.584766 13.62125 29.252891 13.885625 
Q 28.922891 14.148125 28.547891 14.148125 
Q 28.291016 14.148125 28.017266 14.05625 
Q 27.745391 13.96625 27.574766 13.77875 
Q 27.406016 13.59125 27.406016 13.304375 
Q 27.406016 13.023125 27.601016 12.7925 
Q 27.797891 12.56 28.092266 12.56 
Q 28.291016 12.56 28.426016 12.68 
Q 28.561016 12.8 28.561016 12.993125 
Q 28.561016 13.24625 28.392266 13.43375 
Q 28.225391 13.62125 27.974141 13.668125 
z
M 35.061331 9.421437 
L 35.061331 9.195687 
Q 35.061331 9.174688 35.077081 9.151063 
L 36.381706 7.707313 
Q 36.677019 7.387062 36.860769 7.1705 
Q 37.045831 6.952625 37.225644 6.669125 
Q 37.406769 6.385625 37.511769 6.092937 
Q 37.616769 5.80025 37.616769 5.472125 
Q 37.616769 5.126938 37.489456 4.81325 
Q 37.362144 4.499562 37.110144 4.310562 
Q 36.858144 4.121562 36.501144 4.121562 
Q 36.136269 4.121562 35.844894 4.342063 
Q 35.553519 4.56125 35.434081 4.909063 
Q 35.466894 4.901188 35.524644 4.901188 
Q 35.713644 4.901188 35.846206 5.0285 
Q 35.980081 5.155812 35.980081 5.356625 
Q 35.980081 5.549563 35.846206 5.683437 
Q 35.713644 5.816 35.524644 5.816 
Q 35.327769 5.816 35.193894 5.6795 
Q 35.061331 5.541688 35.061331 5.356625 
Q 35.061331 5.040312 35.179456 4.764687 
Q 35.298894 4.48775 35.522019 4.2725 
Q 35.746456 4.055937 36.027331 3.94175 
Q 36.308206 3.82625 36.623206 3.82625 
Q 37.103581 3.82625 37.517019 4.029687 
Q 37.931769 4.233125 38.173269 4.604563 
Q 38.416081 4.974687 38.416081 5.472125 
Q 38.416081 5.837 38.255956 6.165125 
Q 38.095831 6.49325 37.845144 6.762313 
Q 37.595769 7.030062 37.205956 7.371313 
Q 36.816144 7.71125 36.694081 7.825437 
L 35.742519 8.74025 
L 36.549706 8.74025 
Q 37.144269 8.74025 37.544581 8.731063 
Q 37.944894 8.720562 37.968519 8.699562 
Q 38.066956 8.59325 38.170644 7.923875 
L 38.416081 7.923875 
L 38.178519 9.421437 
L 35.061331 9.421437 
z
M 19.596641 11.733125 
L 19.596641 11.253125 
L 25.596641 11.253125 
L 25.596641 11.733125 
L 19.596641 11.733125 
z
" clip-path="url(#pa5dd861f18)"/>
   </g>
  </g>
 </g>
 <defs>
  <clipPath id="pa5dd861f18">
   <rect x="0" y="0" width="38.916081" height="21.450625"/>
  </clipPath>
 </defs>
</svg>
