<?xml version="1.0" encoding="utf-8" standalone="no"?>
<!DOCTYPE svg PUBLIC "-//W3C//DTD SVG 1.1//EN"
  "http://www.w3.org/Graphics/SVG/1.1/DTD/svg11.dtd">
<svg xmlns:xlink="http://www.w3.org/1999/xlink" width="37.341016pt" height="11.681875pt" viewBox="0 0 37.341016 11.681875" xmlns="http://www.w3.org/2000/svg" version="1.1">
 <metadata>
  <rdf:RDF xmlns:dc="http://purl.org/dc/elements/1.1/" xmlns:cc="http://creativecommons.org/ns#" xmlns:rdf="http://www.w3.org/1999/02/22-rdf-syntax-ns#">
   <cc:Work>
    <dc:type rdf:resource="http://purl.org/dc/dcmitype/StillImage"/>
    <dc:format>image/svg+xml</dc:format>
    <dc:creator>
     <cc:Agent>
      <dc:title>Matplotlib v3.10.8, https://matplotlib.org/</dc:title>
     </cc:Agent>
    </dc:creator>
   </cc:Work>
  </rdf:RDF>
 </metadata>
 <defs>
  <style type="text/css">*{stroke-linejoin: round; stroke-linecap: butt}</style>
 </defs>
 <g id="figure_1">
  <g id="patch_1">
   <path d="M 0 11.681875 
L 37.341016 11.681875 
L 37.341016 0 
L 0 0 
L 0 11.681875 
z
" style="fill: none; opacity: 0"/>
  </g>
  <g id="axes_1">
   <g id="patch_2">
    <path d="M 0.899375 10.8575 
L 0.899375 10.435625 
Q 2.135 10.435625 2.135 10.055 
L 2.135 3.4625 
Q 2.135 3.081875 0.899375 3.081875 
L 0.899375 2.66 
L 5.3225 2.66 
Q 6.141875 2.66 6.820625 3.014375 
Q 7.50125 3.36875 7.98125 3.96125 
Q 8.463125 4.551875 8.72375 5.301875 
Q 8.984375 6.051875 8.984375 6.8375 
Q 8.984375 7.59875 8.72 8.316875 
Q 8.4575 9.035 7.9625 9.6125 
Q 7.4675 10.19 6.790625 10.52375 
Q 6.11375 10.8575 5.3225 10.8575 
L 0.899375 10.8575 
z
M 3.213125 10.055 
Q 3.213125 10.311875 3.359375 10.37375 
Q 3.505625 10.435625 3.8225 10.435625 
L 5.01125 10.435625 
Q 5.62625 10.435625 6.179375 10.169375 
Q 6.734375 9.903125 7.098125 9.426875 
Q 7.47875 8.924375 7.60625 8.3 
Q 7.735625 7.675625 7.735625 6.8375 
Q 7.735625 5.965625 7.60625 5.309375 
Q 7.47875 4.653125 7.098125 4.1375 
Q 6.74 3.6275 6.18875 3.355625 
Q 5.639375 3.081875 5.01125 3.081875 
L 3.8225 3.081875 
Q 3.605 3.081875 3.485 3.100625 
Q 3.365 3.1175 3.288125 3.201875 
Q 3.213125 3.28625 3.213125 3.4625 
L 3.213125 10.055 
z
M 10.027578 10.8575 
L 10.027578 10.435625 
Q 11.263203 10.435625 11.263203 10.055 
L 11.263203 3.4625 
Q 11.263203 3.081875 10.027578 3.081875 
L 10.027578 2.66 
L 16.813203 2.66 
L 17.146953 5.40875 
L 16.800078 5.40875 
Q 16.672578 4.371875 16.440078 3.903125 
Q 16.209453 3.434375 15.699453 3.258125 
Q 15.189453 3.081875 14.169453 3.081875 
L 12.991953 3.081875 
Q 12.776328 3.081875 12.654453 3.100625 
Q 12.534453 3.1175 12.457578 3.201875 
Q 12.382578 3.28625 12.382578 3.4625 
L 12.382578 6.393125 
L 13.267578 6.393125 
Q 13.876953 6.393125 14.178828 6.29 
Q 14.480703 6.186875 14.595078 5.898125 
Q 14.709453 5.6075 14.709453 4.9925 
L 15.060078 4.9925 
L 15.060078 8.215625 
L 14.709453 8.215625 
Q 14.709453 7.60625 14.595078 7.31375 
Q 14.480703 7.019375 14.178828 6.918125 
Q 13.876953 6.815 13.267578 6.815 
L 12.382578 6.815 
L 12.382578 10.055 
Q 12.382578 10.311875 12.528828 10.37375 
Q 12.675078 10.435625 12.991953 10.435625 
L 14.263203 10.435625 
Q 15.095703 10.435625 15.607578 10.304375 
Q 16.121328 10.17125 16.404453 9.86375 
Q 16.689453 9.55625 16.845078 9.066875 
Q 17.000703 8.5775 17.135703 7.71125 
L 17.480703 7.71125 
L 16.976328 10.8575 
L 10.027578 10.8575 
z
M 20.829219 9.32375 
Q 20.729844 9.32375 20.664219 9.24875 
Q 20.600469 9.171875 20.600469 9.08375 
Q 20.600469 8.984375 20.664219 8.915 
Q 20.729844 8.84375 20.829219 8.84375 
L 28.364844 8.84375 
Q 28.452969 8.84375 28.516719 8.915 
Q 28.582344 8.984375 28.582344 9.08375 
Q 28.582344 9.171875 28.516719 9.24875 
Q 28.452969 9.32375 28.364844 9.32375 
L 20.829219 9.32375 
z
M 20.829219 6.99125 
Q 20.729844 6.99125 20.664219 6.921875 
Q 20.600469 6.850625 20.600469 6.75125 
Q 20.600469 6.663125 20.664219 6.588125 
Q 20.729844 6.51125 20.829219 6.51125 
L 28.364844 6.51125 
Q 28.452969 6.51125 28.516719 6.588125 
Q 28.582344 6.663125 28.582344 6.75125 
Q 28.582344 6.850625 28.516719 6.921875 
Q 28.452969 6.99125 28.364844 6.99125 
L 20.829219 6.99125 
z
M 32.498516 9.99125 
Q 32.779766 10.401875 33.254141 10.600625 
Q 33.730391 10.799375 34.274141 10.799375 
Q 34.971641 10.799375 35.264141 10.205 
Q 35.558516 9.610625 35.558516 8.855 
Q 35.558516 8.515625 35.496641 8.17625 
Q 35.434766 7.835 35.288516 7.5425 
Q 35.142266 7.25 34.887266 7.07375 
Q 34.632266 6.8975 34.262891 6.8975 
L 33.466016 6.8975 
Q 33.361016 6.8975 33.361016 6.786875 
L 33.361016 6.681875 
Q 33.361016 6.588125 33.466016 6.588125 
L 34.127891 6.53375 
Q 34.549766 6.53375 34.827266 6.21875 
Q 35.106641 5.901875 35.236016 5.448125 
Q 35.365391 4.994375 35.365391 4.58375 
Q 35.365391 4.01 35.095391 3.640625 
Q 34.825391 3.27125 34.274141 3.27125 
Q 33.818516 3.27125 33.402266 3.44375 
Q 32.986016 3.61625 32.740391 3.96875 
Q 32.762891 3.963125 32.779766 3.959375 
Q 32.798516 3.955625 32.821016 3.955625 
Q 33.091016 3.955625 33.272891 4.143125 
Q 33.454766 4.330625 33.454766 4.595 
Q 33.454766 4.85375 33.272891 5.04125 
Q 33.091016 5.22875 32.821016 5.22875 
Q 32.558516 5.22875 32.371016 5.04125 
Q 32.183516 4.85375 32.183516 4.595 
Q 32.183516 4.079375 32.492891 3.69875 
Q 32.804141 3.318125 33.293516 3.12125 
Q 33.782891 2.924375 34.274141 2.924375 
Q 34.637891 2.924375 35.041016 3.033125 
Q 35.446016 3.141875 35.774141 3.344375 
Q 36.102266 3.546875 36.310391 3.86375 
Q 36.518516 4.17875 36.518516 4.58375 
Q 36.518516 5.088125 36.293516 5.515625 
Q 36.068516 5.943125 35.674766 6.254375 
Q 35.282891 6.56375 34.814141 6.715625 
Q 35.335391 6.815 35.804141 7.109375 
Q 36.272891 7.401875 36.556016 7.859375 
Q 36.841016 8.315 36.841016 8.84375 
Q 36.841016 9.505625 36.477266 10.041875 
Q 36.115391 10.578125 35.522891 10.88 
Q 34.930391 11.181875 34.274141 11.181875 
Q 33.711641 11.181875 33.145391 10.96625 
Q 32.581016 10.7525 32.221016 10.325 
Q 31.861016 9.8975 31.861016 9.299375 
Q 31.861016 9.00125 32.059766 8.8025 
Q 32.258516 8.60375 32.558516 8.60375 
Q 32.751641 8.60375 32.912891 8.69375 
Q 33.074141 8.78375 33.164141 8.94875 
Q 33.256016 9.111875 33.256016 9.299375 
Q 33.256016 9.59375 33.049766 9.7925 
Q 32.845391 9.99125 32.558516 9.99125 
L 32.498516 9.99125 
z
M 0.5 1.25 
L 0.5 0.5 
L 17.820312 0.5 
L 17.820312 1.25 
L 0.5 1.25 
z
" clip-path="url(#p5d8d3fdc22)"/>
   </g>
  </g>
 </g>
 <defs>
  <clipPath id="p5d8d3fdc22">
   <rect x="0" y="0" width="37.341016" height="11.681875"/>
  </clipPath>
 </defs>
</svg>
