<?xml version="1.0" encoding="utf-8" standalone="no"?>
<!DOCTYPE svg PUBLIC "-//W3C//DTD SVG 1.1//EN"
  "http://www.w3.org/Graphics/SVG/1.1/DTD/svg11.dtd">
<svg xmlns:xlink="http://www.w3.org/1999/xlink" width="17.75125pt" height="9.72625pt" viewBox="0 0 17.75125 9.72625" xmlns="http://www.w3.org/2000/svg" version="1.1">
 <metadata>
  <rdf:RDF xmlns:dc="http://purl.org/dc/elements/1.1/" xmlns:cc="http://creativecommons.org/ns#" xmlns:rdf="http://www.w3.org/1999/02/22-rdf-syntax-ns#">
   <cc:Work>
    <dc:type rdf:resource="http://purl.org/dc/dcmitype/StillImage"/>
    <dc:format>image/svg+xml</dc:format>
    <dc:creator>
     <cc:Agent>
      <dc:title>Matplotlib v3.10.8, https://matplotlib.org/</dc:title>
     </cc:Agent>
    </dc:creator>
   </cc:Work>
  </rdf:RDF>
 </metadata>
 <defs>
  <style type="text/css">*{stroke-linejoin: round; stroke-linecap: butt}</style>
 </defs>
 <g id="figure_1">
  <g id="patch_1">
   <path d="M 0 9.72625 
L 17.75125 9.72625 
L 17.75125 0 
L 0 0 
L 0 9.72625 
z
" style="fill: none; opacity: 0"/>
  </g>
  <g id="axes_1">
   <g id="patch_2">
    <path d="M 4.495625 9.096875 
L 1.66625 1.566875 
Q 1.56125 1.315625 1.26125 1.251875 
Q 0.963125 1.18625 0.5 1.18625 
L 0.5 0.764375 
L 3.798125 0.764375 
L 3.798125 1.18625 
Q 2.8025 1.18625 2.8025 1.4975 
Q 2.808125 1.514375 2.81 1.529375 
Q 2.81375 1.544375 2.81375 1.566875 
L 5.11625 7.690625 
L 7.29125 1.895 
Q 7.31375 1.848125 7.31375 1.74875 
Q 7.31375 1.45625 7.04375 1.32125 
Q 6.775625 1.18625 6.441875 1.18625 
L 6.441875 0.764375 
L 9.03125 0.764375 
L 9.03125 1.18625 
Q 8.579375 1.18625 8.23625 1.353125 
Q 7.895 1.52 7.74875 1.895 
L 5.035625 9.096875 
Q 5 9.22625 4.8425 9.22625 
L 4.68875 9.22625 
Q 4.53125 9.22625 4.495625 9.096875 
z
M 12.006875 7.679375 
Q 12.4175 8.200625 13.0325 8.5025 
Q 13.6475 8.804375 14.31125 8.804375 
Q 14.86625 8.804375 15.340625 8.585 
Q 15.816875 8.36375 16.17125 7.971875 
Q 16.525625 7.578125 16.715 7.08125 
Q 16.90625 6.5825 16.90625 6.03125 
Q 16.90625 5.9375 17.01125 5.9375 
L 17.1575 5.9375 
Q 17.25125 5.9375 17.25125 6.055625 
Q 17.25125 6.681875 17.01125 7.265 
Q 16.77125 7.848125 16.330625 8.290625 
Q 15.891875 8.733125 15.32 8.97875 
Q 14.75 9.22625 14.129375 9.22625 
Q 13.266875 9.22625 12.49625 8.8775 
Q 11.725625 8.52875 11.15375 7.923125 
Q 10.58375 7.315625 10.263125 6.51875 
Q 9.944375 5.721875 9.944375 4.859375 
Q 9.944375 3.99875 10.263125 3.201875 
Q 10.58375 2.405 11.15375 1.795625 
Q 11.725625 1.18625 12.49625 0.843125 
Q 13.266875 0.5 14.129375 0.5 
Q 14.744375 0.5 15.306875 0.768125 
Q 15.869375 1.034375 16.29125 1.52 
L 16.98875 0.535625 
Q 17.058125 0.5 17.069375 0.5 
L 17.1575 0.5 
Q 17.193125 0.5 17.22125 0.53 
Q 17.25125 0.56 17.25125 0.60125 
L 17.25125 3.84125 
Q 17.25125 3.94625 17.1575 3.94625 
L 16.941875 3.94625 
Q 16.829375 3.94625 16.829375 3.84125 
Q 16.829375 3.494375 16.690625 3.066875 
Q 16.55375 2.639375 16.34 2.256875 
Q 16.12625 1.8725 15.845 1.578125 
Q 15.171875 0.921875 14.298125 0.921875 
Q 13.63625 0.921875 13.02875 1.221875 
Q 12.423125 1.52 12.006875 2.046875 
Q 11.568125 2.609375 11.3975 3.3275 
Q 11.22875 4.045625 11.22875 4.859375 
Q 11.22875 5.675 11.3975 6.396875 
Q 11.568125 7.116875 12.006875 7.679375 
z
" clip-path="url(#p89ef676bff)"/>
   </g>
  </g>
 </g>
 <defs>
  <clipPath id="p89ef676bff">
   <rect x="0" y="0" width="17.75125" height="9.72625"/>
  </clipPath>
 </defs>
</svg>
