<?xml version="1.0" encoding="utf-8" standalone="no"?>
<!DOCTYPE svg PUBLIC "-//W3C//DTD SVG 1.1//EN"
  "http://www.w3.org/Graphics/SVG/1.1/DTD/svg11.dtd">
<svg xmlns:xlink="http://www.w3.org/1999/xlink" width="16.750947pt" height="9.584875pt" viewBox="0 0 16.750947 9.584875" xmlns="http://www.w3.org/2000/svg" version="1.1">
 <metadata>
  <rdf:RDF xmlns:dc="http://purl.org/dc/elements/1.1/" xmlns:cc="http://creativecommons.org/ns#" xmlns:rdf="http://www.w3.org/1999/02/22-rdf-syntax-ns#">
   <cc:Work>
    <dc:type rdf:resource="http://purl.org/dc/dcmitype/StillImage"/>
    <dc:format>image/svg+xml</dc:format>
    <dc:creator>
     <cc:Agent>
      <dc:title>Matplotlib v3.10.8, https://matplotlib.org/</dc:title>
     </cc:Agent>
    </dc:creator>
   </cc:Work>
  </rdf:RDF>
 </metadata>
 <defs>
  <style type="text/css">*{stroke-linejoin: round; stroke-linecap: butt}</style>
 </defs>
 <g id="figure_1">
  <g id="patch_1">
   <path d="M 0 9.584875 
L 16.750947 9.584875 
L 16.750947 0 
L 0 0 
L 0 9.584875 
z
" style="fill: none; opacity: 0"/>
  </g>
  <g id="axes_1">
   <g id="patch_2">
    <path d="M 2.995625 9.084875 
Q 2.25125 9.084875 1.7525 8.68925 
Q 1.255625 8.293625 0.981875 7.663625 
Q 0.71 7.033625 0.605 6.34175 
Q 0.5 5.649875 0.5 4.941125 
Q 0.5 3.992375 0.869375 3.038 
Q 1.23875 2.08175 1.955 1.4555 
Q 2.673125 0.827375 3.6575 0.827375 
Q 4.068125 0.827375 4.4225 0.983 
Q 4.776875 1.138625 4.979375 1.4405 
Q 5.181875 1.742375 5.181875 2.169875 
Q 5.181875 2.4155 5.015 2.582375 
Q 4.848125 2.74925 4.600625 2.74925 
Q 4.36625 2.74925 4.195625 2.5805 
Q 4.026875 2.409875 4.026875 2.169875 
Q 4.026875 1.9355 4.195625 1.76675 
Q 4.36625 1.596125 4.600625 1.596125 
L 4.66625 1.596125 
Q 4.5125 1.378625 4.235 1.277375 
Q 3.9575 1.17425 3.6575 1.17425 
Q 3.29375 1.17425 2.98625 1.333625 
Q 2.67875 1.491125 2.433125 1.761125 
Q 2.1875 2.02925 2.0225 2.3555 
Q 1.859375 2.679875 1.7675 3.096125 
Q 1.6775 3.512375 1.653125 3.876125 
Q 1.630625 4.238 1.630625 4.78925 
Q 1.840625 4.296125 2.226875 3.983 
Q 2.615 3.669875 3.100625 3.669875 
Q 3.635 3.669875 4.07375 3.887375 
Q 4.5125 4.103 4.829375 4.487375 
Q 5.14625 4.87175 5.313125 5.364875 
Q 5.48 5.856125 5.48 6.358625 
Q 5.48 7.06175 5.166875 7.69925 
Q 4.85375 8.334875 4.28375 8.709875 
Q 3.715625 9.084875 2.995625 9.084875 
z
M 2.995625 8.702375 
Q 3.45875 8.702375 3.74 8.492375 
Q 4.02125 8.2805 4.1525 7.933625 
Q 4.285625 7.584875 4.3175 7.2305 
Q 4.349375 6.87425 4.349375 6.358625 
Q 4.349375 5.679875 4.28375 5.199875 
Q 4.22 4.718 3.933125 4.352375 
Q 3.64625 3.98675 3.05375 3.98675 
Q 2.568125 3.98675 2.255 4.314875 
Q 1.941875 4.643 1.7975 5.143625 
Q 1.653125 5.64425 1.653125 6.107375 
Q 1.653125 6.264875 1.66625 6.347375 
Q 1.66625 6.366125 1.6625 6.377375 
Q 1.660625 6.388625 1.653125 6.4055 
Q 1.653125 6.921125 1.758125 7.449875 
Q 1.865 7.97675 2.163125 8.3405 
Q 2.463125 8.702375 2.995625 8.702375 
z
M 8.995625 9.084875 
Q 7.525625 9.084875 6.995 7.8755 
Q 6.464375 6.66425 6.464375 4.993625 
Q 6.464375 3.951125 6.65375 3.032375 
Q 6.845 2.11175 7.409375 1.4705 
Q 7.975625 0.827375 8.995625 0.827375 
Q 9.786875 0.827375 10.289375 1.2155 
Q 10.79375 1.60175 11.058125 2.214875 
Q 11.3225 2.826125 11.418125 3.527375 
Q 11.515625 4.22675 11.515625 4.993625 
Q 11.515625 6.024875 11.324375 6.924875 
Q 11.135 7.824875 10.578125 8.454875 
Q 10.02125 9.084875 8.995625 9.084875 
z
M 8.995625 8.773625 
Q 9.663125 8.773625 9.99125 8.08925 
Q 10.319375 7.403 10.39625 6.5705 
Q 10.473125 5.738 10.473125 4.8005 
Q 10.473125 3.898625 10.39625 3.137375 
Q 10.319375 2.37425 9.993125 1.757375 
Q 9.66875 1.138625 8.995625 1.138625 
Q 8.316875 1.138625 7.98875 1.761125 
Q 7.660625 2.38175 7.58375 3.141125 
Q 7.506875 3.898625 7.506875 4.8005 
Q 7.506875 5.468 7.53875 6.0605 
Q 7.5725 6.653 7.713125 7.283 
Q 7.85375 7.913 8.166875 8.34425 
Q 8.48 8.773625 8.995625 8.773625 
z
M 14.631322 3.757625 
Q 14.196884 3.757625 13.821509 3.538438 
Q 13.446134 3.317938 13.224322 2.937313 
Q 13.002509 2.555375 13.002509 2.128813 
Q 13.002509 1.70225 13.224322 1.321625 
Q 13.446134 0.939687 13.821509 0.7205 
Q 14.196884 0.5 14.631322 0.5 
Q 15.065759 0.5 15.438509 0.721813 
Q 15.812572 0.943625 16.031759 1.322938 
Q 16.250947 1.70225 16.250947 2.128813 
Q 16.250947 2.555375 16.031759 2.934688 
Q 15.812572 3.314 15.438509 3.535813 
Q 15.065759 3.757625 14.631322 3.757625 
z
M 14.631322 3.420313 
Q 15.156322 3.420313 15.535634 3.037063 
Q 15.914947 2.653812 15.914947 2.128813 
Q 15.914947 1.792813 15.740384 1.490938 
Q 15.567134 1.189063 15.271822 1.013188 
Q 14.976509 0.837313 14.631322 0.837313 
Q 14.372759 0.837313 14.139134 0.938375 
Q 13.905509 1.038125 13.720447 1.223187 
Q 13.536697 1.406938 13.438259 1.63925 
Q 13.339822 1.87025 13.339822 2.128813 
Q 13.339822 2.653812 13.719134 3.037063 
Q 14.098447 3.420313 14.631322 3.420313 
z
" clip-path="url(#p9e682b8ead)"/>
   </g>
  </g>
 </g>
 <defs>
  <clipPath id="p9e682b8ead">
   <rect x="0" y="0" width="16.750947" height="9.584875"/>
  </clipPath>
 </defs>
</svg>
