<?xml version="1.0" encoding="utf-8" standalone="no"?>
<!DOCTYPE svg PUBLIC "-//W3C//DTD SVG 1.1//EN"
  "http://www.w3.org/Graphics/SVG/1.1/DTD/svg11.dtd">
<svg xmlns:xlink="http://www.w3.org/1999/xlink" width="81.171867pt" height="9.506875pt" viewBox="0 0 81.171867 9.506875" xmlns="http://www.w3.org/2000/svg" version="1.1">
 <metadata>
  <rdf:RDF xmlns:dc="http://purl.org/dc/elements/1.1/" xmlns:cc="http://creativecommons.org/ns#" xmlns:rdf="http://www.w3.org/1999/02/22-rdf-syntax-ns#">
   <cc:Work>
    <dc:type rdf:resource="http://purl.org/dc/dcmitype/StillImage"/>
    <dc:format>image/svg+xml</dc:format>
    <dc:creator>
     <cc:Agent>
      <dc:title>Matplotlib v3.10.8, https://matplotlib.org/</dc:title>
     </cc:Agent>
    </dc:creator>
   </cc:Work>
  </rdf:RDF>
 </metadata>
 <defs>
  <style type="text/css">*{stroke-linejoin: round; stroke-linecap: butt}</style>
 </defs>
 <g id="figure_1">
  <g id="patch_1">
   <path d="M 0 9.506875 
L 81.171867 9.506875 
L 81.171867 0 
L 0 0 
L 0 9.506875 
z
" style="fill: none; opacity: 0"/>
  </g>
  <g id="axes_1">
   <g id="patch_2">
    <path d="M 3.089375 8.661875 
Q 2.361875 8.661875 1.769375 8.285 
Q 1.17875 7.90625 0.839375 7.27625 
Q 0.5 6.64625 0.5 5.9375 
Q 0.5 5.22875 0.835625 4.578125 
Q 1.173125 3.9275 1.7675 3.5375 
Q 2.361875 3.1475 3.089375 3.1475 
Q 3.7925 3.1475 4.368125 3.423125 
Q 4.945625 3.69875 4.945625 4.325 
Q 4.945625 4.559375 4.77875 4.73375 
Q 4.611875 4.90625 4.371875 4.90625 
Q 4.131875 4.90625 3.965 4.73375 
Q 3.798125 4.559375 3.798125 4.325 
Q 3.798125 4.115 3.933125 3.959375 
Q 4.068125 3.80375 4.266875 3.7625 
Q 3.850625 3.5 3.100625 3.5 
Q 2.526875 3.5 2.174375 3.880625 
Q 1.82375 4.26125 1.683125 4.82375 
Q 1.5425 5.38625 1.5425 5.9375 
Q 1.5425 6.516875 1.715 7.05875 
Q 1.8875 7.600625 2.271875 7.955 
Q 2.65625 8.309375 3.235625 8.309375 
Q 3.80375 8.309375 4.20125 7.960625 
Q 4.600625 7.611875 4.746875 7.049375 
Q 4.746875 6.98 4.840625 6.98 
L 4.986875 6.98 
Q 5.0225 6.98 5.050625 7.011875 
Q 5.080625 7.04375 5.080625 7.085 
L 5.080625 7.120625 
Q 4.89875 7.829375 4.35875 8.245625 
Q 3.820625 8.661875 3.089375 8.661875 
z
M 8.426797 8.661875 
Q 7.706797 8.661875 7.089922 8.29625 
Q 6.474922 7.92875 6.116797 7.31375 
Q 5.760547 6.69875 5.760547 5.97125 
Q 5.760547 5.421875 5.957422 4.911875 
Q 6.154297 4.401875 6.519922 4.000625 
Q 6.885547 3.599375 7.371172 3.374375 
Q 7.858672 3.1475 8.426797 3.1475 
Q 9.165547 3.1475 9.771172 3.5375 
Q 10.378672 3.9275 10.729297 4.581875 
Q 11.081797 5.234375 11.081797 5.97125 
Q 11.081797 6.693125 10.723672 7.311875 
Q 10.365547 7.92875 9.752422 8.29625 
Q 9.141172 8.661875 8.426797 8.661875 
z
M 8.426797 8.309375 
Q 9.388672 8.309375 9.709297 7.61375 
Q 10.031797 6.91625 10.031797 5.838125 
Q 10.031797 5.234375 9.968047 4.83875 
Q 9.904297 4.443125 9.686797 4.120625 
Q 9.551797 3.921875 9.343672 3.771875 
Q 9.135547 3.621875 8.903047 3.543125 
Q 8.672422 3.464375 8.426797 3.464375 
Q 8.051797 3.464375 7.714297 3.635 
Q 7.378672 3.80375 7.155547 4.120625 
Q 6.932422 4.46 6.870547 4.86875 
Q 6.810547 5.275625 6.810547 5.838125 
Q 6.810547 6.51125 6.926797 7.0475 
Q 7.044922 7.58375 7.399297 7.9475 
Q 7.753672 8.309375 8.426797 8.309375 
z
M 11.826172 8.5625 
L 11.826172 6.605 
Q 11.826172 6.51125 11.931172 6.51125 
L 12.077422 6.51125 
Q 12.146797 6.51125 12.171172 6.605 
Q 12.504922 8.345 13.787422 8.345 
Q 14.357422 8.345 14.739922 8.088125 
Q 15.124297 7.829375 15.124297 7.29125 
Q 15.124297 6.903125 14.824297 6.63125 
Q 14.526172 6.359375 14.115547 6.26 
L 13.313047 6.100625 
Q 12.909922 6.0125 12.578047 5.8325 
Q 12.248047 5.650625 12.036172 5.34875 
Q 11.826172 5.046875 11.826172 4.6475 
Q 11.826172 4.120625 12.103672 3.785 
Q 12.381172 3.4475 12.825547 3.2975 
Q 13.271797 3.1475 13.787422 3.1475 
Q 14.404297 3.1475 14.859922 3.475625 
L 15.206797 3.1775 
Q 15.206797 3.1475 15.264922 3.1475 
L 15.353047 3.1475 
Q 15.388672 3.1475 15.416797 3.18125 
Q 15.446797 3.213125 15.446797 3.246875 
L 15.446797 4.818125 
Q 15.446797 4.92875 15.353047 4.92875 
L 15.206797 4.92875 
Q 15.099922 4.92875 15.099922 4.818125 
Q 15.099922 4.19 14.751172 3.809375 
Q 14.404297 3.42875 13.776172 3.42875 
Q 13.238047 3.42875 12.842422 3.629375 
Q 12.446797 3.828125 12.446797 4.31375 
Q 12.446797 4.6475 12.729922 4.86125 
Q 13.014922 5.075 13.395547 5.16875 
L 14.209297 5.3225 
Q 14.619922 5.41625 14.974297 5.639375 
Q 15.328672 5.860625 15.536797 6.201875 
Q 15.744922 6.54125 15.744922 6.96875 
Q 15.744922 7.401875 15.594922 7.7225 
Q 15.446797 8.04125 15.178672 8.253125 
Q 14.912422 8.463125 14.548672 8.5625 
Q 14.186797 8.661875 13.787422 8.661875 
Q 13.037422 8.661875 12.504922 8.1575 
L 12.066172 8.631875 
Q 12.066172 8.661875 12.000547 8.661875 
L 11.931172 8.661875 
Q 11.826172 8.661875 11.826172 8.5625 
z
M 18.848707 8.181875 
Q 19.060582 8.345 19.446832 8.345 
Q 19.821832 8.345 20.108707 7.985 
Q 20.395582 7.625 20.500582 7.1975 
L 21.046207 5.069375 
Q 21.175582 4.49 21.175582 4.278125 
Q 21.175582 3.98 21.008707 3.756875 
Q 20.841832 3.53375 20.541832 3.53375 
Q 20.161207 3.53375 19.827457 3.771875 
Q 19.493707 4.01 19.264957 4.375625 
Q 19.036207 4.74125 18.942457 5.11625 
Q 18.919957 5.193125 18.848707 5.193125 
L 18.702457 5.193125 
Q 18.608707 5.193125 18.608707 5.080625 
L 18.608707 5.046875 
Q 18.724957 4.600625 19.006207 4.176875 
Q 19.287457 3.75125 19.694332 3.48875 
Q 20.103082 3.224375 20.566207 3.224375 
Q 21.004957 3.224375 21.359332 3.45875 
Q 21.713707 3.693125 21.859957 4.09625 
Q 22.066207 3.72875 22.384957 3.4775 
Q 22.703707 3.224375 23.084332 3.224375 
Q 23.343082 3.224375 23.611207 3.31625 
Q 23.881207 3.40625 24.051832 3.59375 
Q 24.222457 3.78125 24.222457 4.0625 
Q 24.222457 4.36625 24.025582 4.5875 
Q 23.828707 4.806875 23.524957 4.806875 
Q 23.331832 4.806875 23.202457 4.683125 
Q 23.073082 4.559375 23.073082 4.371875 
Q 23.073082 4.120625 23.245582 3.93125 
Q 23.419957 3.74 23.659957 3.704375 
Q 23.442457 3.53375 23.061832 3.53375 
Q 22.675582 3.53375 22.390582 3.891875 
Q 22.107457 4.25 21.989332 4.68875 
L 21.462457 6.809375 
Q 21.333082 7.29125 21.333082 7.600625 
Q 21.333082 7.90625 21.505582 8.125625 
Q 21.678082 8.345 21.966832 8.345 
Q 22.529332 8.345 22.969957 7.85 
Q 23.412457 7.355 23.553082 6.7625 
Q 23.577457 6.693125 23.646832 6.693125 
L 23.794957 6.693125 
Q 23.841832 6.693125 23.869957 6.725 
Q 23.899957 6.756875 23.899957 6.798125 
Q 23.899957 6.809375 23.888707 6.83375 
Q 23.718082 7.548125 23.172457 8.105 
Q 22.628707 8.661875 21.942457 8.661875 
Q 21.503707 8.661875 21.149332 8.425625 
Q 20.794957 8.1875 20.646832 7.7825 
Q 20.459332 8.135 20.127457 8.399375 
Q 19.797457 8.661875 19.422457 8.661875 
Q 19.165582 8.661875 18.891832 8.57 
Q 18.619957 8.48 18.449332 8.2925 
Q 18.280582 8.105 18.280582 7.818125 
Q 18.280582 7.536875 18.475582 7.30625 
Q 18.672457 7.07375 18.966832 7.07375 
Q 19.165582 7.07375 19.300582 7.19375 
Q 19.435582 7.31375 19.435582 7.506875 
Q 19.435582 7.76 19.266832 7.9475 
Q 19.099957 8.135 18.848707 8.181875 
z
M 28.092223 5.766875 
Q 27.992848 5.766875 27.927223 5.691875 
Q 27.863473 5.615 27.863473 5.526875 
Q 27.863473 5.43875 27.927223 5.36375 
Q 27.992848 5.286875 28.092223 5.286875 
L 34.977223 5.286875 
Q 35.070973 5.286875 35.132848 5.36375 
Q 35.194723 5.43875 35.194723 5.526875 
Q 35.194723 5.615 35.132848 5.691875 
Q 35.070973 5.766875 34.977223 5.766875 
L 28.092223 5.766875 
z
M 38.696519 8.5625 
L 38.696519 6.605 
Q 38.696519 6.51125 38.801519 6.51125 
L 38.947769 6.51125 
Q 39.017144 6.51125 39.041519 6.605 
Q 39.375269 8.345 40.657769 8.345 
Q 41.227769 8.345 41.610269 8.088125 
Q 41.994644 7.829375 41.994644 7.29125 
Q 41.994644 6.903125 41.694644 6.63125 
Q 41.396519 6.359375 40.985894 6.26 
L 40.183394 6.100625 
Q 39.780269 6.0125 39.448394 5.8325 
Q 39.118394 5.650625 38.906519 5.34875 
Q 38.696519 5.046875 38.696519 4.6475 
Q 38.696519 4.120625 38.974019 3.785 
Q 39.251519 3.4475 39.695894 3.2975 
Q 40.142144 3.1475 40.657769 3.1475 
Q 41.274644 3.1475 41.730269 3.475625 
L 42.077144 3.1775 
Q 42.077144 3.1475 42.135269 3.1475 
L 42.223394 3.1475 
Q 42.259019 3.1475 42.287144 3.18125 
Q 42.317144 3.213125 42.317144 3.246875 
L 42.317144 4.818125 
Q 42.317144 4.92875 42.223394 4.92875 
L 42.077144 4.92875 
Q 41.970269 4.92875 41.970269 4.818125 
Q 41.970269 4.19 41.621519 3.809375 
Q 41.274644 3.42875 40.646519 3.42875 
Q 40.108394 3.42875 39.712769 3.629375 
Q 39.317144 3.828125 39.317144 4.31375 
Q 39.317144 4.6475 39.600269 4.86125 
Q 39.885269 5.075 40.265894 5.16875 
L 41.079644 5.3225 
Q 41.490269 5.41625 41.844644 5.639375 
Q 42.199019 5.860625 42.407144 6.201875 
Q 42.615269 6.54125 42.615269 6.96875 
Q 42.615269 7.401875 42.465269 7.7225 
Q 42.317144 8.04125 42.049019 8.253125 
Q 41.782769 8.463125 41.419019 8.5625 
Q 41.057144 8.661875 40.657769 8.661875 
Q 39.907769 8.661875 39.375269 8.1575 
L 38.936519 8.631875 
Q 38.936519 8.661875 38.870894 8.661875 
L 38.801519 8.661875 
Q 38.696519 8.661875 38.696519 8.5625 
z
M 43.395035 8.526875 
L 43.395035 8.105 
Q 43.80566 8.105 44.06816 8.04125 
Q 44.332535 7.975625 44.332535 7.724375 
L 44.332535 4.44875 
Q 44.332535 3.985625 44.152535 3.880625 
Q 43.97441 3.775625 43.447535 3.775625 
L 43.447535 3.35375 
L 45.176285 3.224375 
L 45.176285 7.724375 
Q 45.176285 7.975625 45.405035 8.04125 
Q 45.633785 8.105 46.01441 8.105 
L 46.01441 8.526875 
L 43.395035 8.526875 
z
M 43.905035 1.161875 
Q 43.905035 0.8975 44.103785 0.69875 
Q 44.302535 0.5 44.561285 0.5 
Q 44.730035 0.5 44.887535 0.588125 
Q 45.04691 0.674375 45.135035 0.83375 
Q 45.22316 0.99125 45.22316 1.161875 
Q 45.22316 1.41875 45.022535 1.619375 
Q 44.823785 1.818125 44.561285 1.818125 
Q 44.302535 1.818125 44.103785 1.619375 
Q 43.905035 1.41875 43.905035 1.161875 
z
M 46.706051 8.526875 
L 46.706051 8.105 
Q 47.114801 8.105 47.379176 8.04125 
Q 47.643551 7.975625 47.643551 7.724375 
L 47.643551 4.44875 
Q 47.643551 4.12625 47.546051 3.98375 
Q 47.450426 3.839375 47.268551 3.8075 
Q 47.086676 3.775625 46.706051 3.775625 
L 46.706051 3.35375 
L 48.446051 3.224375 
L 48.446051 4.39625 
Q 48.686051 3.880625 49.156676 3.5525 
Q 49.629176 3.224375 50.186051 3.224375 
Q 51.018551 3.224375 51.436676 3.62375 
Q 51.856676 4.02125 51.856676 4.840625 
L 51.856676 7.724375 
Q 51.856676 7.975625 52.119176 8.04125 
Q 52.383551 8.105 52.794176 8.105 
L 52.794176 8.526875 
L 50.045426 8.526875 
L 50.045426 8.105 
Q 50.456051 8.105 50.718551 8.04125 
Q 50.982926 7.975625 50.982926 7.724375 
L 50.982926 4.87625 
Q 50.982926 4.29125 50.812301 3.9125 
Q 50.643551 3.53375 50.114801 3.53375 
Q 49.419176 3.53375 48.969176 4.090625 
Q 48.521051 4.6475 48.521051 5.35625 
L 48.521051 7.724375 
Q 48.521051 7.975625 48.785426 8.04125 
Q 49.049801 8.105 49.452926 8.105 
L 49.452926 8.526875 
L 46.706051 8.526875 
z
M 55.70343 8.181875 
Q 55.915305 8.345 56.301555 8.345 
Q 56.676555 8.345 56.96343 7.985 
Q 57.250305 7.625 57.355305 7.1975 
L 57.90093 5.069375 
Q 58.030305 4.49 58.030305 4.278125 
Q 58.030305 3.98 57.86343 3.756875 
Q 57.696555 3.53375 57.396555 3.53375 
Q 57.01593 3.53375 56.68218 3.771875 
Q 56.34843 4.01 56.11968 4.375625 
Q 55.89093 4.74125 55.79718 5.11625 
Q 55.77468 5.193125 55.70343 5.193125 
L 55.55718 5.193125 
Q 55.46343 5.193125 55.46343 5.080625 
L 55.46343 5.046875 
Q 55.57968 4.600625 55.86093 4.176875 
Q 56.14218 3.75125 56.549055 3.48875 
Q 56.957805 3.224375 57.42093 3.224375 
Q 57.85968 3.224375 58.214055 3.45875 
Q 58.56843 3.693125 58.71468 4.09625 
Q 58.92093 3.72875 59.23968 3.4775 
Q 59.55843 3.224375 59.939055 3.224375 
Q 60.197805 3.224375 60.46593 3.31625 
Q 60.73593 3.40625 60.906555 3.59375 
Q 61.07718 3.78125 61.07718 4.0625 
Q 61.07718 4.36625 60.880305 4.5875 
Q 60.68343 4.806875 60.37968 4.806875 
Q 60.186555 4.806875 60.05718 4.683125 
Q 59.927805 4.559375 59.927805 4.371875 
Q 59.927805 4.120625 60.100305 3.93125 
Q 60.27468 3.74 60.51468 3.704375 
Q 60.29718 3.53375 59.916555 3.53375 
Q 59.530305 3.53375 59.245305 3.891875 
Q 58.96218 4.25 58.844055 4.68875 
L 58.31718 6.809375 
Q 58.187805 7.29125 58.187805 7.600625 
Q 58.187805 7.90625 58.360305 8.125625 
Q 58.532805 8.345 58.821555 8.345 
Q 59.384055 8.345 59.82468 7.85 
Q 60.26718 7.355 60.407805 6.7625 
Q 60.43218 6.693125 60.501555 6.693125 
L 60.64968 6.693125 
Q 60.696555 6.693125 60.72468 6.725 
Q 60.75468 6.756875 60.75468 6.798125 
Q 60.75468 6.809375 60.74343 6.83375 
Q 60.572805 7.548125 60.02718 8.105 
Q 59.48343 8.661875 58.79718 8.661875 
Q 58.35843 8.661875 58.004055 8.425625 
Q 57.64968 8.1875 57.501555 7.7825 
Q 57.314055 8.135 56.98218 8.399375 
Q 56.65218 8.661875 56.27718 8.661875 
Q 56.020305 8.661875 55.746555 8.57 
Q 55.47468 8.48 55.304055 8.2925 
Q 55.135305 8.105 55.135305 7.818125 
Q 55.135305 7.536875 55.330305 7.30625 
Q 55.52718 7.07375 55.821555 7.07375 
Q 56.020305 7.07375 56.155305 7.19375 
Q 56.290305 7.31375 56.290305 7.506875 
Q 56.290305 7.76 56.121555 7.9475 
Q 55.95468 8.135 55.70343 8.181875 
z
M 64.718195 8.766875 
Q 64.718195 8.615 64.87757 8.538125 
L 71.246945 5.526875 
L 64.83632 2.49125 
Q 64.718195 2.455625 64.718195 2.286875 
Q 64.718195 2.204375 64.785695 2.125625 
Q 64.853195 2.046875 64.958195 2.046875 
Q 64.98257 2.046875 65.051945 2.069375 
L 71.94257 5.3225 
Q 72.049445 5.375 72.049445 5.526875 
Q 72.049445 5.684375 71.90882 5.744375 
L 65.051945 8.984375 
Q 64.98257 9.006875 64.958195 9.006875 
Q 64.853195 9.006875 64.785695 8.928125 
Q 64.718195 8.849375 64.718195 8.766875 
z
M 78.151867 8.79125 
Q 76.681867 8.79125 76.151242 7.581875 
Q 75.620617 6.370625 75.620617 4.7 
Q 75.620617 3.6575 75.809992 2.73875 
Q 76.001242 1.818125 76.565617 1.176875 
Q 77.131867 0.53375 78.151867 0.53375 
Q 78.943117 0.53375 79.445617 0.921875 
Q 79.949992 1.308125 80.214367 1.92125 
Q 80.478742 2.5325 80.574367 3.23375 
Q 80.671867 3.933125 80.671867 4.7 
Q 80.671867 5.73125 80.480617 6.63125 
Q 80.291242 7.53125 79.734367 8.16125 
Q 79.177492 8.79125 78.151867 8.79125 
z
M 78.151867 8.48 
Q 78.819367 8.48 79.147492 7.795625 
Q 79.475617 7.109375 79.552492 6.276875 
Q 79.629367 5.444375 79.629367 4.506875 
Q 79.629367 3.605 79.552492 2.84375 
Q 79.475617 2.080625 79.149367 1.46375 
Q 78.824992 0.845 78.151867 0.845 
Q 77.473117 0.845 77.144992 1.4675 
Q 76.816867 2.088125 76.739992 2.8475 
Q 76.663117 3.605 76.663117 4.506875 
Q 76.663117 5.174375 76.694992 5.766875 
Q 76.728742 6.359375 76.869367 6.989375 
Q 77.009992 7.619375 77.323117 8.050625 
Q 77.636242 8.48 78.151867 8.48 
z
" clip-path="url(#pfb257e7999)"/>
   </g>
  </g>
 </g>
 <defs>
  <clipPath id="pfb257e7999">
   <rect x="0" y="0" width="81.171867" height="9.506875"/>
  </clipPath>
 </defs>
</svg>
