<?xml version="1.0" encoding="utf-8" standalone="no"?>
<!DOCTYPE svg PUBLIC "-//W3C//DTD SVG 1.1//EN"
  "http://www.w3.org/Graphics/SVG/1.1/DTD/svg11.dtd">
<svg xmlns:xlink="http://www.w3.org/1999/xlink" width="36.848828pt" height="11.94625pt" viewBox="0 0 36.848828 11.94625" xmlns="http://www.w3.org/2000/svg" version="1.1">
 <metadata>
  <rdf:RDF xmlns:dc="http://purl.org/dc/elements/1.1/" xmlns:cc="http://creativecommons.org/ns#" xmlns:rdf="http://www.w3.org/1999/02/22-rdf-syntax-ns#">
   <cc:Work>
    <dc:type rdf:resource="http://purl.org/dc/dcmitype/StillImage"/>
    <dc:format>image/svg+xml</dc:format>
    <dc:creator>
     <cc:Agent>
      <dc:title>Matplotlib v3.10.8, https://matplotlib.org/</dc:title>
     </cc:Agent>
    </dc:creator>
   </cc:Work>
  </rdf:RDF>
 </metadata>
 <defs>
  <style type="text/css">*{stroke-linejoin: round; stroke-linecap: butt}</style>
 </defs>
 <g id="figure_1">
  <g id="patch_1">
   <path d="M 0 11.94625 
L 36.848828 11.94625 
L 36.848828 0 
L 0 0 
L 0 11.94625 
z
" style="fill: none; opacity: 0"/>
  </g>
  <g id="axes_1">
   <g id="patch_2">
    <path d="M 3.235625 9.839375 
Q 3.64625 10.360625 4.26125 10.6625 
Q 4.87625 10.964375 5.54 10.964375 
Q 6.095 10.964375 6.569375 10.745 
Q 7.045625 10.52375 7.4 10.131875 
Q 7.754375 9.738125 7.94375 9.24125 
Q 8.135 8.7425 8.135 8.19125 
Q 8.135 8.0975 8.24 8.0975 
L 8.38625 8.0975 
Q 8.48 8.0975 8.48 8.215625 
Q 8.48 8.841875 8.24 9.425 
Q 8 10.008125 7.559375 10.450625 
Q 7.120625 10.893125 6.54875 11.13875 
Q 5.97875 11.38625 5.358125 11.38625 
Q 4.495625 11.38625 3.725 11.0375 
Q 2.954375 10.68875 2.3825 10.083125 
Q 1.8125 9.475625 1.491875 8.67875 
Q 1.173125 7.881875 1.173125 7.019375 
Q 1.173125 6.15875 1.491875 5.361875 
Q 1.8125 4.565 2.3825 3.955625 
Q 2.954375 3.34625 3.725 3.003125 
Q 4.495625 2.66 5.358125 2.66 
Q 5.973125 2.66 6.535625 2.928125 
Q 7.098125 3.194375 7.52 3.68 
L 8.2175 2.695625 
Q 8.286875 2.66 8.298125 2.66 
L 8.38625 2.66 
Q 8.421875 2.66 8.45 2.69 
Q 8.48 2.72 8.48 2.76125 
L 8.48 6.00125 
Q 8.48 6.10625 8.38625 6.10625 
L 8.170625 6.10625 
Q 8.058125 6.10625 8.058125 6.00125 
Q 8.058125 5.654375 7.919375 5.226875 
Q 7.7825 4.799375 7.56875 4.416875 
Q 7.355 4.0325 7.07375 3.738125 
Q 6.400625 3.081875 5.526875 3.081875 
Q 4.865 3.081875 4.2575 3.381875 
Q 3.651875 3.68 3.235625 4.206875 
Q 2.796875 4.769375 2.62625 5.4875 
Q 2.4575 6.205625 2.4575 7.019375 
Q 2.4575 7.835 2.62625 8.556875 
Q 2.796875 9.276875 3.235625 9.839375 
z
M 9.535391 11.121875 
L 9.535391 10.7 
Q 10.771016 10.7 10.771016 10.319375 
L 10.771016 3.726875 
Q 10.771016 3.34625 9.535391 3.34625 
L 9.535391 2.924375 
L 16.321016 2.924375 
L 16.654766 5.673125 
L 16.307891 5.673125 
Q 16.180391 4.63625 15.947891 4.1675 
Q 15.717266 3.69875 15.207266 3.5225 
Q 14.697266 3.34625 13.677266 3.34625 
L 12.499766 3.34625 
Q 12.284141 3.34625 12.162266 3.365 
Q 12.042266 3.381875 11.965391 3.46625 
Q 11.890391 3.550625 11.890391 3.726875 
L 11.890391 6.6575 
L 12.775391 6.6575 
Q 13.384766 6.6575 13.686641 6.554375 
Q 13.988516 6.45125 14.102891 6.1625 
Q 14.217266 5.871875 14.217266 5.256875 
L 14.567891 5.256875 
L 14.567891 8.48 
L 14.217266 8.48 
Q 14.217266 7.870625 14.102891 7.578125 
Q 13.988516 7.28375 13.686641 7.1825 
Q 13.384766 7.079375 12.775391 7.079375 
L 11.890391 7.079375 
L 11.890391 10.319375 
Q 11.890391 10.57625 12.036641 10.638125 
Q 12.182891 10.7 12.499766 10.7 
L 13.771016 10.7 
Q 14.603516 10.7 15.115391 10.56875 
Q 15.629141 10.435625 15.912266 10.128125 
Q 16.197266 9.820625 16.352891 9.33125 
Q 16.508516 8.841875 16.643516 7.975625 
L 16.988516 7.975625 
L 16.484141 11.121875 
L 9.535391 11.121875 
z
M 20.337031 9.588125 
Q 20.237656 9.588125 20.172031 9.513125 
Q 20.108281 9.43625 20.108281 9.348125 
Q 20.108281 9.24875 20.172031 9.179375 
Q 20.237656 9.108125 20.337031 9.108125 
L 27.872656 9.108125 
Q 27.960781 9.108125 28.024531 9.179375 
Q 28.090156 9.24875 28.090156 9.348125 
Q 28.090156 9.43625 28.024531 9.513125 
Q 27.960781 9.588125 27.872656 9.588125 
L 20.337031 9.588125 
z
M 20.337031 7.255625 
Q 20.237656 7.255625 20.172031 7.18625 
Q 20.108281 7.115 20.108281 7.015625 
Q 20.108281 6.9275 20.172031 6.8525 
Q 20.237656 6.775625 20.337031 6.775625 
L 27.872656 6.775625 
Q 27.960781 6.775625 28.024531 6.8525 
Q 28.090156 6.9275 28.090156 7.015625 
Q 28.090156 7.115 28.024531 7.18625 
Q 27.960781 7.255625 27.872656 7.255625 
L 20.337031 7.255625 
z
M 33.864453 11.44625 
Q 33.120078 11.44625 32.621328 11.050625 
Q 32.124453 10.655 31.850703 10.025 
Q 31.578828 9.395 31.473828 8.703125 
Q 31.368828 8.01125 31.368828 7.3025 
Q 31.368828 6.35375 31.738203 5.399375 
Q 32.107578 4.443125 32.823828 3.816875 
Q 33.541953 3.18875 34.526328 3.18875 
Q 34.936953 3.18875 35.291328 3.344375 
Q 35.645703 3.5 35.848203 3.801875 
Q 36.050703 4.10375 36.050703 4.53125 
Q 36.050703 4.776875 35.883828 4.94375 
Q 35.716953 5.110625 35.469453 5.110625 
Q 35.235078 5.110625 35.064453 4.941875 
Q 34.895703 4.77125 34.895703 4.53125 
Q 34.895703 4.296875 35.064453 4.128125 
Q 35.235078 3.9575 35.469453 3.9575 
L 35.535078 3.9575 
Q 35.381328 3.74 35.103828 3.63875 
Q 34.826328 3.535625 34.526328 3.535625 
Q 34.162578 3.535625 33.855078 3.695 
Q 33.547578 3.8525 33.301953 4.1225 
Q 33.056328 4.390625 32.891328 4.716875 
Q 32.728203 5.04125 32.636328 5.4575 
Q 32.546328 5.87375 32.521953 6.2375 
Q 32.499453 6.599375 32.499453 7.150625 
Q 32.709453 6.6575 33.095703 6.344375 
Q 33.483828 6.03125 33.969453 6.03125 
Q 34.503828 6.03125 34.942578 6.24875 
Q 35.381328 6.464375 35.698203 6.84875 
Q 36.015078 7.233125 36.181953 7.72625 
Q 36.348828 8.2175 36.348828 8.72 
Q 36.348828 9.423125 36.035703 10.060625 
Q 35.722578 10.69625 35.152578 11.07125 
Q 34.584453 11.44625 33.864453 11.44625 
z
M 33.864453 11.06375 
Q 34.327578 11.06375 34.608828 10.85375 
Q 34.890078 10.641875 35.021328 10.295 
Q 35.154453 9.94625 35.186328 9.591875 
Q 35.218203 9.235625 35.218203 8.72 
Q 35.218203 8.04125 35.152578 7.56125 
Q 35.088828 7.079375 34.801953 6.71375 
Q 34.515078 6.348125 33.922578 6.348125 
Q 33.436953 6.348125 33.123828 6.67625 
Q 32.810703 7.004375 32.666328 7.505 
Q 32.521953 8.005625 32.521953 8.46875 
Q 32.521953 8.62625 32.535078 8.70875 
Q 32.535078 8.7275 32.531328 8.73875 
Q 32.529453 8.75 32.521953 8.766875 
Q 32.521953 9.2825 32.626953 9.81125 
Q 32.733828 10.338125 33.031953 10.701875 
Q 33.331953 11.06375 33.864453 11.06375 
z
M 0.5 1.25 
L 0.5 0.5 
L 17.328125 0.5 
L 17.328125 1.25 
L 0.5 1.25 
z
" clip-path="url(#p0ea0493404)"/>
   </g>
  </g>
 </g>
 <defs>
  <clipPath id="p0ea0493404">
   <rect x="0" y="0" width="36.848828" height="11.94625"/>
  </clipPath>
 </defs>
</svg>
