<?xml version="1.0" encoding="utf-8" standalone="no"?>
<!DOCTYPE svg PUBLIC "-//W3C//DTD SVG 1.1//EN"
  "http://www.w3.org/Graphics/SVG/1.1/DTD/svg11.dtd">
<svg xmlns:xlink="http://www.w3.org/1999/xlink" width="14.0239pt" height="11.687687pt" viewBox="0 0 14.0239 11.687687" xmlns="http://www.w3.org/2000/svg" version="1.1">
 <metadata>
  <rdf:RDF xmlns:dc="http://purl.org/dc/elements/1.1/" xmlns:cc="http://creativecommons.org/ns#" xmlns:rdf="http://www.w3.org/1999/02/22-rdf-syntax-ns#">
   <cc:Work>
    <dc:type rdf:resource="http://purl.org/dc/dcmitype/StillImage"/>
    <dc:format>image/svg+xml</dc:format>
    <dc:creator>
     <cc:Agent>
      <dc:title>Matplotlib v3.10.8, https://matplotlib.org/</dc:title>
     </cc:Agent>
    </dc:creator>
   </cc:Work>
  </rdf:RDF>
 </metadata>
 <defs>
  <style type="text/css">*{stroke-linejoin: round; stroke-linecap: butt}</style>
 </defs>
 <g id="figure_1">
  <g id="patch_1">
   <path d="M 0 11.687687 
L 14.0239 11.687687 
L 14.0239 0 
L 0 0 
L 0 11.687687 
z
" style="fill: none; opacity: 0"/>
  </g>
  <g id="axes_1">
   <g id="patch_2">
    <path d="M 4.4975 9.22625 
Q 3.35375 9.22625 2.4425 8.620625 
Q 1.53125 8.013125 1.015625 7.008125 
Q 0.5 6.003125 0.5 4.895 
Q 0.5 4.075625 0.79625 3.273125 
Q 1.0925 2.46875 1.623125 1.848125 
Q 2.15375 1.2275 2.89625 0.86375 
Q 3.640625 0.5 4.4975 0.5 
Q 5.346875 0.5 6.093125 0.8675 
Q 6.84125 1.233125 7.37375 1.86125 
Q 7.90625 2.4875 8.193125 3.2675 
Q 8.481875 4.045625 8.481875 4.895 
Q 8.481875 6.003125 7.96625 7.008125 
Q 7.450625 8.013125 6.535625 8.620625 
Q 5.6225 9.22625 4.4975 9.22625 
z
M 2.504375 7.66625 
Q 2.856875 8.2175 3.3725 8.54375 
Q 3.888125 8.868125 4.4975 8.868125 
Q 4.889375 8.868125 5.26625 8.710625 
Q 5.645 8.55125 5.9525 8.275625 
Q 6.26 8 6.4775 7.66625 
Q 7.191875 6.588125 7.191875 4.701875 
Q 7.191875 2.973125 6.4775 1.96625 
Q 6.125 1.461875 5.6 1.158125 
Q 5.076875 0.8525 4.4975 0.8525 
Q 3.910625 0.8525 3.38375 1.158125 
Q 2.856875 1.461875 2.504375 1.96625 
Q 2.223125 2.358125 2.0675 2.800625 
Q 1.91375 3.243125 1.848125 3.7175 
Q 1.784375 4.191875 1.784375 4.701875 
Q 1.784375 5.2475 1.844375 5.766875 
Q 1.90625 6.284375 2.073125 6.783125 
Q 2.241875 7.28 2.504375 7.66625 
z
M 10.48415 10.35425 
Q 10.681025 10.641687 11.013087 10.780812 
Q 11.346462 10.919937 11.727087 10.919937 
Q 12.215337 10.919937 12.420087 10.503875 
Q 12.62615 10.087813 12.62615 9.558875 
Q 12.62615 9.321312 12.582838 9.08375 
Q 12.539525 8.844875 12.43715 8.640125 
Q 12.334775 8.435375 12.156275 8.312 
Q 11.977775 8.188625 11.719212 8.188625 
L 11.1614 8.188625 
Q 11.0879 8.188625 11.0879 8.111187 
L 11.0879 8.037688 
Q 11.0879 7.972062 11.1614 7.972062 
L 11.624712 7.934 
Q 11.920025 7.934 12.114275 7.7135 
Q 12.309837 7.491687 12.4004 7.174062 
Q 12.490963 6.856438 12.490963 6.569 
Q 12.490963 6.167375 12.301962 5.908812 
Q 12.112962 5.65025 11.727087 5.65025 
Q 11.40815 5.65025 11.116775 5.771 
Q 10.8254 5.89175 10.653462 6.1385 
Q 10.669212 6.134562 10.681025 6.131937 
Q 10.69415 6.129312 10.7099 6.129312 
Q 10.8989 6.129312 11.026212 6.260562 
Q 11.153525 6.391812 11.153525 6.576875 
Q 11.153525 6.758 11.026212 6.88925 
Q 10.8989 7.0205 10.7099 7.0205 
Q 10.52615 7.0205 10.3949 6.88925 
Q 10.26365 6.758 10.26365 6.576875 
Q 10.26365 6.215938 10.480212 5.9495 
Q 10.698087 5.683063 11.04065 5.54525 
Q 11.383212 5.407437 11.727087 5.407437 
Q 11.981712 5.407437 12.2639 5.483562 
Q 12.5474 5.559688 12.777087 5.701437 
Q 13.006775 5.843187 13.152462 6.065 
Q 13.29815 6.2855 13.29815 6.569 
Q 13.29815 6.922063 13.14065 7.221312 
Q 12.98315 7.520562 12.707525 7.738437 
Q 12.433212 7.955 12.105087 8.061312 
Q 12.469962 8.130875 12.798087 8.336937 
Q 13.126212 8.541687 13.3244 8.861937 
Q 13.5239 9.180875 13.5239 9.551 
Q 13.5239 10.014312 13.269275 10.389687 
Q 13.015962 10.765062 12.601212 10.976375 
Q 12.186462 11.187687 11.727087 11.187687 
Q 11.333337 11.187687 10.936962 11.03675 
Q 10.5419 10.887125 10.2899 10.587875 
Q 10.0379 10.288625 10.0379 9.869937 
Q 10.0379 9.66125 10.177025 9.522125 
Q 10.31615 9.383 10.52615 9.383 
Q 10.661337 9.383 10.774212 9.446 
Q 10.887087 9.509 10.950087 9.6245 
Q 11.0144 9.738687 11.0144 9.869937 
Q 11.0144 10.076 10.870025 10.215125 
Q 10.726962 10.35425 10.52615 10.35425 
L 10.48415 10.35425 
z
" clip-path="url(#pc7b735d31b)"/>
   </g>
  </g>
 </g>
 <defs>
  <clipPath id="pc7b735d31b">
   <rect x="0" y="0" width="14.0239" height="11.687687"/>
  </clipPath>
 </defs>
</svg>
